<svg width="16" height="16" viewBox="0 0 16 16" fill="none" xmlns="http://www.w3.org/2000/svg">
<path d="M15.4913 4.7237C15.4555 3.91017 15.3239 3.35087 15.1355 2.86624C14.941 2.35181 14.6419 1.89124 14.2501 1.50836C13.8672 1.11953 13.4036 0.817394 12.8951 0.626016C12.4077 0.437559 11.8513 0.306001 11.0378 0.270132C10.2182 0.231225 9.95797 0.222229 7.87922 0.222229C5.80047 0.222229 5.54027 0.231225 4.7237 0.267094C3.91017 0.302963 3.35087 0.434638 2.86635 0.622978C2.35181 0.817394 1.89124 1.1165 1.50836 1.50836C1.11953 1.89124 0.817511 2.35484 0.626016 2.86332C0.437559 3.35087 0.306001 3.90713 0.270132 4.72066C0.231225 5.54027 0.222229 5.80047 0.222229 7.87922C0.222229 9.95797 0.231225 10.2182 0.267094 11.0347C0.302963 11.8483 0.434638 12.4076 0.623095 12.8922C0.817511 13.4066 1.11953 13.8672 1.50836 14.2501C1.89124 14.6389 2.35484 14.941 2.86332 15.1324C3.35087 15.3209 3.90713 15.4524 4.72078 15.4883C5.53723 15.5243 5.79755 15.5332 7.8763 15.5332C9.95505 15.5332 10.2152 15.5243 11.0318 15.4883C11.8453 15.4524 12.4046 15.3209 12.8892 15.1324C13.9181 14.7346 14.7317 13.9211 15.1295 12.8922C15.3178 12.4046 15.4495 11.8483 15.4854 11.0347C15.5213 10.2182 15.5303 9.95797 15.5303 7.87922C15.5303 5.80047 15.5272 5.54027 15.4913 4.7237ZM14.1126 10.9749C14.0796 11.7227 13.954 12.1265 13.8493 12.3956C13.5921 13.0627 13.0627 13.5921 12.3956 13.8493C12.1265 13.954 11.7198 14.0796 10.9749 14.1124C10.1673 14.1484 9.92514 14.1573 7.88226 14.1573C5.83937 14.1573 5.59413 14.1484 4.78948 14.1124C4.04173 14.0796 3.63794 13.954 3.36875 13.8493C3.03682 13.7267 2.73468 13.5322 2.48944 13.278C2.2352 13.0297 2.04079 12.7306 1.91811 12.3987C1.81342 12.1295 1.68783 11.7227 1.65499 10.978C1.61901 10.1704 1.61013 9.92806 1.61013 7.88518C1.61013 5.84229 1.61901 5.59705 1.65499 4.79252C1.68783 4.04477 1.81342 3.64098 1.91811 3.37179C2.04079 3.03974 2.2352 2.73772 2.49248 2.49236C2.74064 2.23812 3.03974 2.04371 3.37179 1.92115C3.64098 1.81646 4.0478 1.69086 4.79252 1.65791C5.60009 1.62205 5.84241 1.61305 7.88518 1.61305C9.9311 1.61305 10.1733 1.62205 10.978 1.65791C11.7257 1.69086 12.1295 1.81646 12.3987 1.92115C12.7306 2.04371 13.0328 2.23812 13.278 2.49236C13.5322 2.74064 13.7266 3.03974 13.8493 3.37179C13.954 3.64098 14.0796 4.04769 14.1126 4.79252C14.1484 5.60009 14.1574 5.84229 14.1574 7.88518C14.1574 9.92806 14.1484 10.1673 14.1126 10.9749Z" fill="#080415"/>
<path d="M7.87849 3.94623C5.70709 3.94623 3.94531 5.70789 3.94531 7.87941C3.94531 10.0509 5.70709 11.8126 7.87849 11.8126C10.05 11.8126 11.8117 10.0509 11.8117 7.87941C11.8117 5.70789 10.05 3.94623 7.87849 3.94623ZM7.87849 10.4308C6.4698 10.4308 5.32714 9.28822 5.32714 7.87941C5.32714 6.4706 6.4698 5.32805 7.87849 5.32805C9.28731 5.32805 10.4299 6.4706 10.4299 7.87941C10.4299 9.28822 9.28731 10.4308 7.87849 10.4308Z" fill="#080415"/>
<path d="M12.8856 3.79033C12.8856 4.2973 12.4745 4.70837 11.9674 4.70837C11.4604 4.70837 11.0494 4.2973 11.0494 3.79033C11.0494 3.28324 11.4604 2.87228 11.9674 2.87228C12.4745 2.87228 12.8856 3.28324 12.8856 3.79033Z" fill="#080415"/>
</svg>
